<svg width="38" height="38" xmlns="http://www.w3.org/2000/svg" xmlns:xlink="http://www.w3.org/1999/xlink" overflow="hidden"><defs><clipPath id="clip0"><rect x="406" y="55" width="38" height="38"/></clipPath></defs><g clip-path="url(#clip0)" transform="translate(-406 -55)"><path d="M406.942 74.477C406.942 64.2599 415.225 55.9769 425.442 55.9769 435.659 55.9769 443.942 64.2599 443.942 74.477 443.942 84.6939 435.659 92.9769 425.442 92.9769 415.225 92.9769 406.942 84.6939 406.942 74.477Z" fill="#EB5C01" fill-rule="evenodd"/><path d="M434.706 65.6004 429.206 65.6004 429.206 64.1004C429.206 62.9304 428.203 62.0004 426.942 62.0004L423.059 62.0004C421.797 62.0004 420.795 62.9304 420.795 64.1004L420.795 65.6004 415.295 65.6004C414.583 65.6004 414 66.1405 414 66.8004L414 68.0004 436.001 68.0004 436.001 66.8004C436.001 66.1405 435.418 65.6004 434.706 65.6004ZM422.736 64.1004C422.736 63.9204 422.865 63.8004 423.059 63.8004L426.942 63.8004C427.136 63.8004 427.265 63.9204 427.265 64.1004L427.265 65.6004 422.736 65.6004 422.736 64.1004Z" fill="#FFFFFF" fill-rule="evenodd"/><path d="M416 85.7861C416 86.4541 416.579 87.0005 417.286 87.0005L432.715 87.0005C433.422 87.0005 434.001 86.4541 434.001 85.7861L434.001 70.0004 416 70.0004 416 85.7861ZM429.179 71.8218 431.108 71.8218 431.108 85.179 429.179 85.179 429.179 71.8218ZM424.036 71.8218 425.965 71.8218 425.965 85.179 424.036 85.179 424.036 71.8218ZM418.893 71.8218 420.822 71.8218 420.822 85.179 418.893 85.179 418.893 71.8218Z" fill="#FFFFFF" fill-rule="evenodd"/></g></svg>