<svg width="94" height="87" xmlns="http://www.w3.org/2000/svg" xmlns:xlink="http://www.w3.org/1999/xlink" overflow="hidden"><defs><clipPath id="clip0"><rect x="703" y="542" width="94" height="87"/></clipPath></defs><g clip-path="url(#clip0)" transform="translate(-703 -542)"><path d="M704 568.448C704 554.393 715.393 543 729.448 543L770.552 543C784.607 543 796 554.393 796 568.448L796 602.552C796 616.607 784.607 628 770.552 628L729.448 628C715.393 628 704 616.607 704 602.552Z" fill="#EB5C01" fill-rule="evenodd"/><rect x="731" y="554" width="38" height="38" stroke="#FFFFFF" stroke-width="2" stroke-linecap="round" stroke-linejoin="round" stroke-miterlimit="10" fill="none"/><path d="M769.119 592.119 731 554" stroke="#FFFFFF" stroke-width="2" stroke-linecap="round" stroke-miterlimit="8" fill="none" fill-rule="evenodd"/><path d="M0 0 38.1188 38.1188" stroke="#FFFFFF" stroke-width="2" stroke-linecap="round" stroke-linejoin="round" stroke-miterlimit="10" fill="none" fill-rule="evenodd" transform="matrix(1 0 0 -1 731 592.119)"/><path d="M750.396 573.159 775.763 598.73 756.745 617.595 731.378 592.024Z" stroke="#FFFFFF" stroke-width="1.33333" stroke-linecap="round" stroke-miterlimit="8" fill="#FFFFFF" fill-rule="evenodd"/><rect x="0" y="0" width="43.9181" height="26.7875" stroke="#FFFFFF" stroke-width="2" stroke-linecap="round" stroke-linejoin="round" stroke-miterlimit="10" fill="#EB5C01" transform="matrix(0.704247 -0.709955 -0.709955 -0.704247 738.422 622.262)"/></g></svg>