<svg width="93" height="86" xmlns="http://www.w3.org/2000/svg" xmlns:xlink="http://www.w3.org/1999/xlink" overflow="hidden"><defs><clipPath id="clip0"><rect x="793" y="571" width="93" height="86"/></clipPath><clipPath id="clip1"><rect x="800" y="575" width="79" height="78"/></clipPath><clipPath id="clip2"><rect x="800" y="575" width="79" height="78"/></clipPath><clipPath id="clip3"><rect x="800" y="575" width="79" height="78"/></clipPath></defs><g clip-path="url(#clip0)" transform="translate(-793 -571)"><path d="M793.928 596.388C793.928 582.333 805.321 570.94 819.376 570.94L860.48 570.94C874.535 570.94 885.928 582.333 885.928 596.388L885.928 630.492C885.928 644.547 874.535 655.94 860.48 655.94L819.376 655.94C805.321 655.94 793.928 644.547 793.928 630.492Z" fill="#EB5C01" fill-rule="evenodd"/><g clip-path="url(#clip1)"><g clip-path="url(#clip2)"><g clip-path="url(#clip3)"><path d="M65.325 57.2C62.3187 50.5375 54.925 48.1812 54.4375 28.4375L54.4375 28.5187C54.1937 22.8313 50.8625 18.0375 46.15 15.6 46.3125 15.0312 46.3937 14.4625 46.3937 13.8938 46.3937 9.83125 43.1437 6.58125 39.0812 6.58125 35.0187 6.58125 31.7687 9.83125 31.7687 13.8938 31.7687 14.4625 31.85 15.1125 32.0125 15.6 27.3 18.0375 23.9688 22.9125 23.725 28.5187L23.725 28.4375C23.2375 48.1812 15.8438 50.5375 12.8375 57.2 12.025 58.2562 11.5375 59.3125 11.5375 60.5312 11.375 66.625 23.725 71.5 39 71.5 54.275 71.5 66.625 66.625 66.625 60.5312 66.625 59.3937 66.2188 58.2562 65.325 57.2ZM39 9.75C41.275 9.75 43.0625 11.5375 43.0625 13.8125 43.0625 13.975 43.0625 14.1375 42.9813 14.3813 41.7625 13.975 40.3813 13.8125 39 13.8125 37.6187 13.8125 36.2375 13.975 35.0187 14.3813 35.0187 14.2188 34.9375 14.0562 34.9375 13.8125 34.9375 11.5375 36.725 9.75 39 9.75ZM39 66.625C24.7812 66.625 17.0625 62.3187 16.25 60.5312 16.9 58.9875 23.1562 55.3312 34.6125 54.6 34.2875 55.25 34.0438 56.0625 34.0438 56.875 34.0438 59.5563 36.2375 61.75 39 61.75 41.7625 61.75 43.9562 59.5563 43.9562 56.875 43.9562 56.0625 43.7125 55.25 43.3875 54.6 54.8438 55.3312 61.1 58.9875 61.75 60.5312 60.9375 62.3187 53.2188 66.625 39 66.625Z" stroke="#FFFFFF" stroke-width="0.812489" fill="#FFFFFF" transform="matrix(1.01282 0 0 1 800 575)"/></g></g></g></g></svg>