<svg width="16" height="16" viewBox="0 0 16 16" xmlns="http://www.w3.org/2000/svg" xmlns:xlink="http://www.w3.org/1999/xlink" fill="currentColor" overflow="hidden"><path d="M11.742 10.344C13.864 7.44843 13.2368 3.38092 10.3412 1.25896 7.44568-0.862994 3.37817-0.235857 1.25621 2.65971-0.865746 5.55528-0.238608 9.62279 2.65696 11.7448 4.94557 13.4219 8.05759 13.4208 10.345 11.742L10.344 11.742C10.374 11.782 10.406 11.82 10.442 11.857L14.292 15.707C14.6825 16.0977 15.3158 16.098 15.7065 15.7075 16.0972 15.317 16.0975 14.6837 15.707 14.293L11.857 10.443C11.8212 10.4068 11.7828 10.3734 11.742 10.343ZM12 6.5C12 9.53757 9.53757 12 6.5 12 3.46243 12 1 9.53757 1 6.5 1 3.46243 3.46243 1 6.5 1 9.53757 1 12 3.46243 12 6.5Z" fill="#464646"/></svg>